<svg xmlns="http://www.w3.org/2000/svg" width="128.396" height="128.105" viewBox="0 0 128.396 128.105"><defs><style>.a{fill:#464646;}</style></defs><g transform="translate(0 -0.394)"><g transform="translate(0 0.394)"><path class="a" d="M125.517,101.719,105.688,81.888a10.339,10.339,0,0,0-14.577.274l-9.99,9.988c-.631-.348-1.284-.711-1.971-1.1-6.308-3.5-14.943-8.286-24.028-17.379C46.009,64.563,41.214,55.915,37.708,49.6c-.37-.669-.724-1.314-1.075-1.926l6.7-6.695,3.3-3.3A10.33,10.33,0,0,0,46.9,23.1L27.071,3.271a10.328,10.328,0,0,0-14.577.274L6.906,9.166l.153.152a32.316,32.316,0,0,0-4.6,8.123A33.676,33.676,0,0,0,.4,25.679c-2.618,21.706,7.3,41.543,34.219,68.462,37.21,37.207,67.2,34.4,68.49,34.259a33.5,33.5,0,0,0,8.262-2.076,32.206,32.206,0,0,0,8.093-4.585l.122.108,5.661-5.544A10.348,10.348,0,0,0,125.517,101.719Z" transform="translate(0 -0.394)"/></g></g></svg>