<svg xmlns="http://www.w3.org/2000/svg" width="135.331" height="94.732" viewBox="0 0 135.331 94.732"><defs><style>.a{fill:#464646;}</style></defs><g transform="translate(0 -4.179)"><g transform="translate(0 4.179)"><path class="a" d="M4.134,9.775,52.88,48.387a12.4,12.4,0,0,0,8.215,2.38,12.369,12.369,0,0,0,8.21-2.38L118.051,9.775c3.906-3.075,3.022-5.6-1.934-5.6H6.082C1.122,4.179.238,6.7,4.134,9.775Z" transform="translate(6.568 -4.179)"/><path class="a" d="M128.141,8.627,74.872,49.07a12.933,12.933,0,0,1-14.4,0L7.19,8.627C3.235,5.629,0,7.237,0,12.2V78.554a9.05,9.05,0,0,0,9.021,9.021H126.31a9.05,9.05,0,0,0,9.021-9.021V12.2C135.331,7.237,132.1,5.629,128.141,8.627Z" transform="translate(0 7.157)"/></g></g></svg>